<svg xmlns="http://www.w3.org/2000/svg" viewBox="0 0 10620 6460" fill="#d4e9e2" style="#" class="svg-siren"><desc>Siren Logo</desc><rect x="0.335" y="0.167" width="10620" height="6460" class="background" data-tooltip="Light Green" tabindex="0"></rect><circle cx="5489.931" cy="3235.0519" r="2104.416" fill="#fff" class="secondary" data-tooltip="White" tabindex="0"></circle><g data-tooltip="Starbucks Green" class="trademark" tabindex="0"><path d="M6810.6176,5039.0438c44.4633,0,81.772,35.177,81.772,81.6654,0,46.625-37.3087,81.772-81.772,81.772-44.6218,0-81.7173-35.147-81.7173-81.772C6728.9,5074.2208,6765.9958,5039.0438,6810.6176,5039.0438Zm0,151.56c37.3087,0,67.3071-30.3154,67.3071-69.8951,0-39.47-29.9984-69.7885-67.3071-69.7885-37.5765,0-67.2,30.3181-67.2,69.7885C6743.4171,5160.2889,6773.0411,5190.6043,6810.6176,5190.6043Zm-31.1707-117.72h36.0816c22.5788,0,33.2532,8.9665,33.2532,27.2218,0,17.348-10.9423,24.6338-25.194,26.1533l27.49,42.14h-15.64l-25.94-41.0719h-15.5335V5168.4h-14.5168Zm14.5168,42.5667h15.0006c12.8634,0,25.4072-.64,25.4072-16.0636,0-13.186-11.4233-14.6535-21.3517-14.6535h-19.0561Z" fill="#006241"></path></g><g data-tooltip="Starbucks Green" fill="#006241" tabindex="0"><path d="M5701.5844,2040.4723c-18.4955-3.3145-107.4364-18.2675-211.6461-18.2675-104.2389,0-193.18,14.953-211.6751,18.2675-10.5049,1.8238-14.614-8.4528-6.5065-14.503,7.3071-5.3662,218.1816-165.8925,218.1816-165.8925s210.8511,160.5263,218.0412,165.8925C5716.1985,2032.02,5712.089,2042.2961,5701.5844,2040.4723ZM5337.175,3082.5166s-11.0716,3.9984-14.0412,13.819c44.187,34.0215,74.666,111.2011,166.8045,111.2011,91.9982,0,122.5941-77.18,166.6642-111.2011-2.97-9.8206-13.93-13.819-13.93-13.819s-57.7722,13.5907-152.7341,13.5907C5394.9471,3096.1073,5337.175,3082.5166,5337.175,3082.5166Zm152.7633-130.0414c-25.5746,0-31.28-9.7038-48.6355-9.5868-16.6717.111-48.98,13.24-55.9425,25.4576a27.3176,27.3176,0,0,0,7.0791,16.5548c37.4469,5.7111,54.23,26.4864,97.4989,26.4864,43.1581,0,60.0873-20.7753,97.3586-26.4864a26.8328,26.8328,0,0,0,7.196-16.5548c-6.9622-12.2173-39.2182-25.3466-55.89-25.4576C5521.224,2942.7714,5515.5128,2952.4752,5489.9383,2952.4752Zm2101.1928,397.8931q-4.1035,75.5223-13.3572,149.5658c-238.1618,39.5043-323.4493-172.8606-567.3164-162.2391a1544.2841,1544.2841,0,0,1,35.3893,158.3576c201.3988-.1169,282.4657,188.0416,506.2419,160.298q-17.4674,86.3079-42.2466,170.1134c-176.9638,17.4667-239.3018-158.4686-444.1261-153.6752,1.5962,29.228,2.5078,58.684,2.5078,88.368,0,16.5548-.456,32.8816-.9116,49.2084,174.684-2.0518,231.5384,159.3864,398.0039,151.8514q-31.3385,84.7731-69.6446,166.0036c-119.6538-6.623-160.7543-159.9534-342.7457-147.7361-5.4773,39.2708-12.328,78.2084-20.7811,116.567,158.2465-11.0712,192.1569,134.4961,305.2986,146.14q-43.1582,79.1267-92.9335,153.7924c-67.1368-35.8511-125.248-144.3164-252.32-151.0505q19.5184-60.2829,34.2494-122.5065c-112.92,0-241.9322-43.959-350.0526-142.4867,34.9392-199.686-274.9249-402.9145-274.9249-549.1658,0-158.7025,80.3771-246.6146,80.3771-460.6867,0-158.93-77.18-331.2123-193.4078-449.0364a391.1184,391.1184,0,0,0-72.1582-58c106.8636,132.21,189.07,289.0829,189.07,470.7294,0,201.6268-93.8513,308.0344-93.8513,494.1353,0,185.9894,272.0722,347.083,272.0722,538.7781,0,75.5838-24.09,149.2268-103.5549,293.9933,122.1677,122.05,281.32,188.6142,383.963,188.6142,33.3375,0,51.26-10.0483,63.1384-36.3068q15.4149-33.9075,29.2281-68.505c110.5171,4.3377,161.21,104.9231,222.4079,145.1117q-50.181,67.4813-105.7237,130.8423c-41.1063-45.5549-96.248-122.05-176.97-143.2876-14.386,28.2048-29.7951,55.8314-45.8939,83.0077,69.5277,18.8345,117.14,89.052,153.9036,135.0625-39.6219,41.1008-81.0614,80.6054-123.8805,118.3973-26.8255-41.6734-68.7269-94.8743-115.6554-123.3076-17.2387,23.4061-35.2783,46.2388-53.8907,68.505,39.961,27.0593,75.1278,75.4668,97.9607,115.0883q-74.321,59.9322-154.1312,113.1418c-26.2584-213.7275-318.083-360.2123-239.4186-608.3061-25.6856,43.7251-56.515,98.528-56.515,164.1742,0,179.5947,191.1219,321.97,206.4257,500.4193q-59.5989,35.4507-121.4835,67.131c-6.8511-196.1436-209.39-410.5606-209.39-571.66,0-179.5891,235.3092-359.9846,235.3092-572.1157s-271.3883-359.0724-271.3883-545.2846,115.3164-293.309,115.3164-531.9268c0-174.7955-82.8908-351.7655-211.2194-464.7962-22.7219-19.98-44.982-35.9625-71.93-49.8923C6151.1937,2520.9055,6221.3,2652.6593,6221.3,2852.3454c0,224.349-132.216,348.9131-132.216,568.6963,0,219.6663,266.25,341.9448,266.25,546.6522,0,204.8241-247.9825,377.568-247.9825,587.8755,0,191.35,218.5265,382.5893,221.8409,609.68-47.8405,20.7753-96.4759,39.9545-146.0288,57.199,27.86-229.4867-218.1819-466.1637-218.1819-653.41,0-204.7074,257.2305-380.5317,257.2305-601.3438,0-220.6951-261.4569-323.4493-261.4569-549.9666s160.5263-351.9935,160.5263-602.2557c0-195.01-96.3587-370.4889-237.133-479.1822-2.9692-2.28-5.8222-4.5654-8.9087-6.7341-13.24-9.8207-24.09,2.0518-14.7251,13.7021,99.5566,124.4468,152.7633,250.1512,152.7633,436.3631,0,228.9141-184.277,414.9038-184.277,636.85,0,261.6843,247.5265,336.5786,247.5265,551.2235,0,214.7616-265.3381,386.4767-265.3381,614.473,0,211.4472,251.18,446.0727,208.0219,690.1737q-75.5219,19.5184-153.2193,33.5655c47.04-303.8139-199.23-522.1065-199.23-720.77,0-215.3292,274.8135-407.135,274.8135-617.4426,0-198.2012-197.2894-263.0524-223.0919-466.0471-3.6535-27.6322-25.9194-48.1853-56.515-43.047-40.0779,7.307-91.3965,33.6824-172.0308,33.6824-80.6051,0-131.9822-26.3754-172.1708-33.6824-30.4848-5.1383-52.7449,15.4148-56.3981,43.047-25.8028,202.9947-223.0922,267.8459-223.0922,466.0471,0,210.3076,274.6969,402.1134,274.6969,617.4426,0,198.6631-246.27,416.9557-199.23,720.77q-77.583-14.0471-153.1083-33.5655c-43.1523-244.101,208.0222-478.7265,208.0222-690.1737,0-227.9963-265.4491-399.7114-265.4491-614.473,0-214.6449,247.5262-289.5392,247.5262-551.2235,0-221.9461-184.2767-407.9358-184.2767-636.85,0-186.2119,53.2064-311.9163,152.88-436.3631,9.3588-11.65-1.4848-23.5228-14.842-13.7021-2.97,2.1687-5.9391,4.4543-8.9084,6.7341-140.6574,108.6933-237.0223,284.1726-237.0223,479.1822,0,250.2622,160.5263,375.7383,160.5263,602.2557s-261.4507,329.2715-261.4507,549.9666c0,220.8121,257.1133,396.6364,257.1133,601.3438,0,187.2466-245.9248,423.9236-218.1816,653.41-49.5532-17.2445-98.1887-36.4237-146.0291-57.199,3.3144-227.09,221.7239-418.3294,221.7239-609.68,0-210.3075-247.7544-383.0514-247.7544-587.8755,0-204.7074,266.25-326.9859,266.25-546.6522,0-219.7832-132.21-344.3473-132.21-568.6963,0-199.6861,70.1006-331.44,191.1222-476.5514-26.9421,13.93-49.3194,29.912-72.0413,49.8923-128.2117,113.0307-211.3305,290.0007-211.3305,464.7962,0,238.6178,115.5385,345.7152,115.5385,531.9268S4510.46,3755.5626,4510.46,3967.6939s235.3091,392.5266,235.3091,572.1157c0,161.0992-202.5445,375.5162-209.3956,571.66q-61.9926-31.68-121.5945-67.131c15.3038-178.4489,206.5371-320.8246,206.5371-500.4193,0-65.6462-30.8239-120.4491-56.6261-164.1742,78.6641,248.0938-213.0436,394.5786-239.3079,608.3061q-79.8013-53.0928-154.2423-113.1418c22.95-39.6215,58.1112-88.029,97.9608-115.0883-18.6122-22.2662-36.652-45.0989-53.8907-68.505-46.9286,28.4333-88.713,81.6342-115.6551,123.3076-42.8194-37.7919-84.2589-77.2965-123.8805-118.3973,36.88-46.0105,84.3756-116.228,153.9032-135.0625q-24.1482-40.7644-45.7828-83.0077c-80.8331,21.2371-135.9747,97.7327-176.9641,143.2876q-55.4865-63.3606-105.9517-130.8423c61.3088-40.1886,111.8908-140.774,222.519-145.1117q13.8715,34.5918,29.228,68.505c11.9894,26.2585,29.912,36.3068,63.1385,36.3068,102.7541,0,261.9125-66.5637,384.0741-188.6142-79.5763-144.7665-103.6661-218.41-103.6661-293.9933,0-191.6951,272.1833-352.7887,272.1833-538.7781,0-186.1009-93.8451-292.5085-93.8451-494.1353,0-181.6465,82.09-338.5193,189.0643-470.7294a391.0671,391.0671,0,0,0-72.1521,58c-116.4565,117.8241-193.5251,290.1059-193.5251,449.0364,0,214.0721,80.2661,301.9842,80.2661,460.6867,0,146.2513-309.753,349.48-274.7027,549.1658-108.12,98.5277-237.2441,142.4867-350.0466,142.4867q14.7217,62.3347,34.2492,122.5065c-127.1888,6.7341-185.4167,115.1994-252.4369,151.0505q-49.4889-74.8383-92.9335-153.7924c113.1418-11.6442,147.1691-157.2115,305.2987-146.14-8.3358-38.3586-15.3038-77.2962-20.7811-116.567-181.8745-12.2173-223.2088,141.1131-342.7457,147.7361q-38.1864-81.1779-69.5277-166.0036c166.46,7.6461,223.203-153.9032,397.8873-151.8514-.5726-16.3268-.8008-32.6536-.8008-49.2084,0-29.684.9119-59.14,2.5136-88.368-204.8243-4.7934-267.1619,171.1419-444.243,153.6752q-24.49-83.7475-42.1293-170.1134c223.6589,27.7436,304.8369-160.4149,506.1249-160.298a1486.4757,1486.4757,0,0,1,35.5059-158.3576c-243.984-10.6215-329.2715,201.7434-567.3223,162.2391-6.2781-49.3253-10.6156-99.2176-13.3572-149.5658,276.8657,31.0519,380.6486-196.6054,632.7408-168.7452a1480.0056,1480.0056,0,0,1,82.4345-174.6844c-316.0312-55.4865-423.35,208.7058-717.4609,168.1724,31.7417-1134.5277,961.3339-2044.4788,2103.5077-2044.4788,1142.15,0,2071.7372,909.9511,2103.4788,2044.4788-294.2216,40.5334-401.5411-223.6589-717.5724-168.1724a1479.7652,1479.7652,0,0,1,82.5459,174.6844C7210.4825,3153.7629,7314.1544,3381.42,7591.1311,3350.3683ZM4585.2424,2467.8156c-154.8209-63.3664-342.4066-48.7524-502.7049,54.2356-24.7737-149.11-105.6068-281.4369-220.9173-361.3584-15.8708-11.0713-32.4253-.5726-31.0577,17.9288,24.4347,314.8855-159.7252,588.4425-386.1318,828.7731,233.3685,70.1005,432.0315-230.2878,734.5828-125.3591A1589.0028,1589.0028,0,0,1,4585.2424,2467.8156Zm904.6959-190.4383c-195.3486,0-358.9555,110.5171-401.8857,253.2319-3.3086,10.9605,1.1457,18.04,13.8132,12.3342,35.1675-15.76,75.1278-23.4058,118.6249-23.4058,79.6936,0,149.9107,29.3391,191.3561,80.1491,18.4955,60.6249,19.9806,148.42-.8009,198.4293-32.7643-7.307-44.6429-32.7647-76.6064-32.7647-32.0868,0-56.8605,22.605-111.2072,22.605s-60.7359-25.6918-96.359-25.6918c-42.0183,0-49.7812,43.2754-49.7812,92.1389,0,217.6145,200.0309,517.202,412.8462,517.202,212.7919,0,412.817-299.5875,412.817-517.202,0-48.8635-10.0428-90.6538-54.0018-96.3591-21.8041,15.7539-41.9013,29.912-92.1385,29.912-54.3466,0-69.3-22.605-101.38-22.605-38.5927,0-34.7109,81.5171-80.722,86.0825-30.4264-73.5261-32.0278-167.7164-6.5646-251.7471,41.5038-50.81,111.7154-80.1491,191.4089-80.1491,43.3858,0,83.8024,7.646,118.5136,23.4058,12.6674,5.7053,17.1218-1.3737,13.9242-12.3342C5848.87,2387.8944,5685.2577,2277.3773,5489.9383,2277.3773Zm310.9748,312.2608c-46.8058,0-101.7254,14.3857-136.32,52.8619-3.6535,10.3876-3.6535,25.9194,1.4848,36.4181,84.9426-29.1111,159.9534-30.251,196.0325,10.1656,19.2964-17.4726,25.4635-33.3376,25.4635-51.6051C5887.5742,2609.1625,5858.9132,2589.6381,5800.9131,2589.6381Zm-683.1765,99.4456c40.8784-40.99,127.3057-39.2767,216.9306-6.1672,3.8815-44.6429-75.9283-93.2784-155.7329-93.2784-58,0-86.7722,19.5244-86.7722,47.84C5092.1621,2655.7461,5098.3292,2671.6111,5117.7366,2689.0837ZM6463.91,1952.3322c-154.2422,10.96-288.2821,63.9334-396.5194,152.19,46.0108-130.4974,104.4669-244.557,178.3379-355.191-196.1436,20.7811-360.44,92.7055-480.2052,215.3289l-93.8509-245.8138,208.2495-183.9321-278.806-19.6358-111.178-259.1706-111.2011,259.1706-278.8122,19.6358,208.1388,183.9321L5214.33,1964.6606c-119.8818-122.6234-284.0616-194.5478-480.3221-215.3289,73.871,110.634,132.3271,224.6936,178.4489,355.191-108.3484-88.2571-242.2713-141.23-396.6305-152.19,92.4776,118.964,174.5675,245.8079,235.3034,382.0165,6.851,15.4148,21.582,20.4362,37.5642,12.5622,211.2191-104.9287,449.3809-164.0688,701.2449-164.0688,251.8347,0,489.8855,59.14,701.216,164.0688,15.9877,7.874,30.6018,2.8526,37.4528-12.5622C6289.343,2198.14,6371.3218,2071.2962,6463.91,1952.3322Zm336.6955,929.7034c302.6681-104.9287,501.3312,195.46,734.7,125.3591-226.4063-240.3306-410.45-513.8876-386.2486-828.7731,1.6017-18.5014-15.07-29-30.8239-17.9288-115.3164,79.9215-196.15,212.2486-221.0342,361.3584-160.2984-102.988-347.7729-117.602-502.705-54.2356A1586.726,1586.726,0,0,1,6800.6059,2882.0356Z"></path></g></svg>